<svg xmlns="http://www.w3.org/2000/svg" viewBox="0 0 470 110" width="470" height="110" role="img" aria-label="Vibe Index">
  <defs>
    <linearGradient id="g" x1="0" y1="0" x2="1" y2="0">
      <stop offset="0"    stop-color="#27ae60"/>
      <stop offset="0.25" stop-color="#1abc9c"/>
      <stop offset="0.5"  stop-color="#3498db"/>
      <stop offset="0.75" stop-color="#6c5ce7"/>
      <stop offset="1"    stop-color="#8a2be2"/>
    </linearGradient>
  </defs>

  <g transform="translate(8,23) scale(2.7)" fill="url(#g)">
    <path d="M9 4 Q9 13 18 13 Q9 13 9 22 Q9 13 0 13 Q9 13 9 4 Z"/>
    <path d="M19 1 Q19 6 24 6 Q19 6 19 11 Q19 6 14 6 Q19 6 19 1 Z"/>
    <path d="M20 14 Q20 18 24 18 Q20 18 20 22 Q20 18 16 18 Q20 18 20 14 Z"/>
  </g>

  <text x="86" y="74" font-family="'Segoe UI', Helvetica, Arial, sans-serif"
        font-size="58" font-weight="800" letter-spacing="-1" fill="url(#g)">Vibe Index</text>
</svg>
